<?xml version="1.0" encoding="UTF-8" standalone="no"?>
<!DOCTYPE svg PUBLIC "-//W3C//DTD SVG 1.1//EN"
 "http://www.w3.org/Graphics/SVG/1.1/DTD/svg11.dtd">
<!-- Generated by graphviz version 12.2.1 (20241206.2353)
 -->
<!-- Pages: 1 -->
<svg width="194pt" height="329pt"
 viewBox="0.00 0.00 193.90 329.00" xmlns="http://www.w3.org/2000/svg" xmlns:xlink="http://www.w3.org/1999/xlink">
<g id="graph0" class="graph" transform="scale(1 1) rotate(0) translate(4 325)">
<polygon fill="white" stroke="none" points="-4,4 -4,-325 189.9,-325 189.9,4 -4,4"/>
<!-- asia -->
<g id="node1" class="node">
<title>asia</title>
<ellipse fill="none" stroke="black" cx="27" cy="-303" rx="27" ry="18"/>
<text text-anchor="middle" x="27" y="-297.95" font-family="Times,serif" font-size="14.00">asia</text>
</g>
<!-- tub -->
<g id="node2" class="node">
<title>tub</title>
<ellipse fill="none" stroke="black" cx="27" cy="-214.5" rx="27" ry="18"/>
<text text-anchor="middle" x="27" y="-209.45" font-family="Times,serif" font-size="14.00">tub</text>
</g>
<!-- asia&#45;&gt;tub -->
<g id="edge1" class="edge">
<title>asia&#45;&gt;tub</title>
<path fill="none" stroke="black" d="M27,-284.91C27,-273.26 27,-257.55 27,-244.02"/>
<polygon fill="black" stroke="black" points="30.5,-244.36 27,-234.36 23.5,-244.36 30.5,-244.36"/>
<text text-anchor="middle" x="39" y="-253.7" font-family="Times,serif" font-size="14.00">1.00</text>
</g>
<!-- either -->
<g id="node6" class="node">
<title>either</title>
<ellipse fill="none" stroke="black" cx="77" cy="-106.5" rx="31.9" ry="18"/>
<text text-anchor="middle" x="77" y="-101.45" font-family="Times,serif" font-size="14.00">either</text>
</g>
<!-- tub&#45;&gt;either -->
<g id="edge4" class="edge">
<title>tub&#45;&gt;either</title>
<path fill="none" stroke="black" d="M32.33,-196.41C37.17,-181.75 44.94,-160.23 54,-142.5 55.6,-139.36 57.42,-136.16 59.32,-133.03"/>
<polygon fill="black" stroke="black" points="62.2,-135.02 64.66,-124.71 56.31,-131.24 62.2,-135.02"/>
<text text-anchor="middle" x="66" y="-155.45" font-family="Times,serif" font-size="14.00">1.00</text>
</g>
<!-- smoke -->
<g id="node3" class="node">
<title>smoke</title>
<ellipse fill="none" stroke="black" cx="130" cy="-303" rx="35.49" ry="18"/>
<text text-anchor="middle" x="130" y="-297.95" font-family="Times,serif" font-size="14.00">smoke</text>
</g>
<!-- lung -->
<g id="node4" class="node">
<title>lung</title>
<ellipse fill="none" stroke="black" cx="99" cy="-214.5" rx="27.3" ry="18"/>
<text text-anchor="middle" x="99" y="-209.45" font-family="Times,serif" font-size="14.00">lung</text>
</g>
<!-- smoke&#45;&gt;lung -->
<g id="edge2" class="edge">
<title>smoke&#45;&gt;lung</title>
<path fill="none" stroke="black" d="M117.86,-285.61C114.18,-279.96 110.47,-273.43 108,-267 105.22,-259.77 103.29,-251.64 101.96,-244.01"/>
<polygon fill="black" stroke="black" points="105.43,-243.54 100.53,-234.14 98.5,-244.54 105.43,-243.54"/>
<text text-anchor="middle" x="120" y="-253.7" font-family="Times,serif" font-size="14.00">1.00</text>
</g>
<!-- bronc -->
<g id="node5" class="node">
<title>bronc</title>
<ellipse fill="none" stroke="black" cx="154" cy="-160.5" rx="31.9" ry="18"/>
<text text-anchor="middle" x="154" y="-155.45" font-family="Times,serif" font-size="14.00">bronc</text>
</g>
<!-- smoke&#45;&gt;bronc -->
<g id="edge3" class="edge">
<title>smoke&#45;&gt;bronc</title>
<path fill="none" stroke="black" d="M132.94,-284.77C136.97,-261.18 144.26,-218.5 149.12,-190.08"/>
<polygon fill="black" stroke="black" points="152.54,-190.81 150.78,-180.36 145.64,-189.63 152.54,-190.81"/>
<text text-anchor="middle" x="150.45" y="-253.7" font-family="Times,serif" font-size="14.00">1.00</text>
</g>
<!-- lung&#45;&gt;either -->
<g id="edge5" class="edge">
<title>lung&#45;&gt;either</title>
<path fill="none" stroke="black" d="M93.74,-196.51C92.08,-190.82 90.34,-184.42 89,-178.5 85.85,-164.59 83.12,-148.98 81.07,-135.95"/>
<polygon fill="black" stroke="black" points="84.57,-135.68 79.61,-126.32 77.65,-136.73 84.57,-135.68"/>
<text text-anchor="middle" x="101" y="-155.45" font-family="Times,serif" font-size="14.00">1.00</text>
</g>
<!-- dysp -->
<g id="node8" class="node">
<title>dysp</title>
<ellipse fill="none" stroke="black" cx="148" cy="-18" rx="28.32" ry="18"/>
<text text-anchor="middle" x="148" y="-12.95" font-family="Times,serif" font-size="14.00">dysp</text>
</g>
<!-- bronc&#45;&gt;dysp -->
<g id="edge7" class="edge">
<title>bronc&#45;&gt;dysp</title>
<path fill="none" stroke="black" d="M153.26,-142.27C152.26,-118.68 150.43,-76 149.22,-47.58"/>
<polygon fill="black" stroke="black" points="152.73,-47.72 148.81,-37.88 145.74,-48.02 152.73,-47.72"/>
<text text-anchor="middle" x="164.48" y="-101.45" font-family="Times,serif" font-size="14.00">1.00</text>
</g>
<!-- xray -->
<g id="node7" class="node">
<title>xray</title>
<ellipse fill="none" stroke="black" cx="68" cy="-18" rx="27.3" ry="18"/>
<text text-anchor="middle" x="68" y="-12.95" font-family="Times,serif" font-size="14.00">xray</text>
</g>
<!-- either&#45;&gt;xray -->
<g id="edge6" class="edge">
<title>either&#45;&gt;xray</title>
<path fill="none" stroke="black" d="M72.39,-88.53C71.04,-82.85 69.73,-76.44 69,-70.5 68.1,-63.13 67.67,-55.13 67.51,-47.68"/>
<polygon fill="black" stroke="black" points="71.02,-47.72 67.46,-37.74 64.02,-47.76 71.02,-47.72"/>
<text text-anchor="middle" x="81" y="-57.2" font-family="Times,serif" font-size="14.00">1.00</text>
</g>
<!-- either&#45;&gt;dysp -->
<g id="edge8" class="edge">
<title>either&#45;&gt;dysp</title>
<path fill="none" stroke="black" d="M88.58,-89.43C96.15,-79.12 106.38,-65.55 116,-54 119.29,-50.05 122.88,-45.94 126.42,-41.99"/>
<polygon fill="black" stroke="black" points="128.8,-44.58 132.97,-34.83 123.64,-39.86 128.8,-44.58"/>
<text text-anchor="middle" x="128" y="-57.2" font-family="Times,serif" font-size="14.00">1.00</text>
</g>
</g>
</svg>
