<?xml version="1.0" encoding="UTF-8" standalone="no"?>
<!DOCTYPE svg PUBLIC "-//W3C//DTD SVG 1.1//EN"
 "http://www.w3.org/Graphics/SVG/1.1/DTD/svg11.dtd">
<!-- Generated by graphviz version 12.2.1 (20241206.2353)
 -->
<!-- Pages: 1 -->
<svg width="199pt" height="221pt"
 viewBox="0.00 0.00 199.47 221.00" xmlns="http://www.w3.org/2000/svg" xmlns:xlink="http://www.w3.org/1999/xlink">
<g id="graph0" class="graph" transform="scale(1 1) rotate(0) translate(4 217)">
<polygon fill="white" stroke="none" points="-4,4 -4,-217 195.47,-217 195.47,4 -4,4"/>
<!-- Pollution -->
<g id="node1" class="node">
<title>Pollution</title>
<ellipse fill="none" stroke="black" cx="44.7" cy="-195" rx="44.7" ry="18"/>
<text text-anchor="middle" x="44.7" y="-189.95" font-family="Times,serif" font-size="14.00">Pollution</text>
</g>
<!-- Cancer -->
<g id="node2" class="node">
<title>Cancer</title>
<ellipse fill="none" stroke="black" cx="95.7" cy="-106.5" rx="37.02" ry="18"/>
<text text-anchor="middle" x="95.7" y="-101.45" font-family="Times,serif" font-size="14.00">Cancer</text>
</g>
<!-- Pollution&#45;&gt;Cancer -->
<g id="edge1" class="edge">
<title>Pollution&#45;&gt;Cancer</title>
<path fill="none" stroke="black" d="M54.53,-177.32C61.8,-165 71.84,-147.97 80.18,-133.82"/>
<polygon fill="black" stroke="black" points="83.06,-135.82 85.13,-125.43 77.03,-132.27 83.06,-135.82"/>
<text text-anchor="middle" x="86.77" y="-145.7" font-family="Times,serif" font-size="14.00">1.00</text>
</g>
<!-- Xray -->
<g id="node4" class="node">
<title>Xray</title>
<ellipse fill="none" stroke="black" cx="48.7" cy="-18" rx="29.34" ry="18"/>
<text text-anchor="middle" x="48.7" y="-12.95" font-family="Times,serif" font-size="14.00">Xray</text>
</g>
<!-- Cancer&#45;&gt;Xray -->
<g id="edge3" class="edge">
<title>Cancer&#45;&gt;Xray</title>
<path fill="none" stroke="black" d="M86.64,-88.82C80,-76.62 70.87,-59.8 63.22,-45.73"/>
<polygon fill="black" stroke="black" points="66.3,-44.07 58.45,-36.96 60.15,-47.41 66.3,-44.07"/>
<text text-anchor="middle" x="88.41" y="-57.2" font-family="Times,serif" font-size="14.00">1.00</text>
</g>
<!-- Dyspnoea -->
<g id="node5" class="node">
<title>Dyspnoea</title>
<ellipse fill="none" stroke="black" cx="143.7" cy="-18" rx="47.77" ry="18"/>
<text text-anchor="middle" x="143.7" y="-12.95" font-family="Times,serif" font-size="14.00">Dyspnoea</text>
</g>
<!-- Cancer&#45;&gt;Dyspnoea -->
<g id="edge4" class="edge">
<title>Cancer&#45;&gt;Dyspnoea</title>
<path fill="none" stroke="black" d="M104.95,-88.82C111.75,-76.58 121.12,-59.69 128.94,-45.59"/>
<polygon fill="black" stroke="black" points="131.78,-47.69 133.57,-37.25 125.66,-44.29 131.78,-47.69"/>
<text text-anchor="middle" x="136" y="-57.2" font-family="Times,serif" font-size="14.00">1.00</text>
</g>
<!-- Smoker -->
<g id="node3" class="node">
<title>Smoker</title>
<ellipse fill="none" stroke="black" cx="147.7" cy="-195" rx="40.09" ry="18"/>
<text text-anchor="middle" x="147.7" y="-189.95" font-family="Times,serif" font-size="14.00">Smoker</text>
</g>
<!-- Smoker&#45;&gt;Cancer -->
<g id="edge2" class="edge">
<title>Smoker&#45;&gt;Cancer</title>
<path fill="none" stroke="black" d="M137.67,-177.32C130.26,-165 120.03,-147.97 111.52,-133.82"/>
<polygon fill="black" stroke="black" points="114.63,-132.19 106.47,-125.42 108.63,-135.8 114.63,-132.19"/>
<text text-anchor="middle" x="138.36" y="-145.7" font-family="Times,serif" font-size="14.00">1.00</text>
</g>
</g>
</svg>
