<?xml version="1.0" encoding="UTF-8" standalone="no"?>
<!DOCTYPE svg PUBLIC "-//W3C//DTD SVG 1.1//EN"
 "http://www.w3.org/Graphics/SVG/1.1/DTD/svg11.dtd">
<!-- Generated by graphviz version 12.2.1 (20241206.2353)
 -->
<!-- Pages: 1 -->
<svg width="781pt" height="398pt"
 viewBox="0.00 0.00 781.06 398.00" xmlns="http://www.w3.org/2000/svg" xmlns:xlink="http://www.w3.org/1999/xlink">
<g id="graph0" class="graph" transform="scale(1 1) rotate(0) translate(4 394)">
<polygon fill="white" stroke="none" points="-4,4 -4,-394 777.06,-394 777.06,4 -4,4"/>
<!-- DuctFlow -->
<g id="node1" class="node">
<title>DuctFlow</title>
<ellipse fill="none" stroke="black" cx="61.19" cy="-195" rx="47.77" ry="18"/>
<text text-anchor="middle" x="61.19" y="-189.95" font-family="Times,serif" font-size="14.00">DuctFlow</text>
</g>
<!-- HypDistrib -->
<g id="node2" class="node">
<title>HypDistrib</title>
<ellipse fill="none" stroke="black" cx="62.19" cy="-106.5" rx="52.38" ry="18"/>
<text text-anchor="middle" x="62.19" y="-101.45" font-family="Times,serif" font-size="14.00">HypDistrib</text>
</g>
<!-- DuctFlow&#45;&gt;HypDistrib -->
<g id="edge2" class="edge">
<title>DuctFlow&#45;&gt;HypDistrib</title>
<path fill="none" stroke="black" d="M61.39,-176.91C61.53,-165.26 61.71,-149.55 61.86,-136.02"/>
<polygon fill="black" stroke="black" points="65.36,-136.4 61.98,-126.36 58.36,-136.32 65.36,-136.4"/>
<text text-anchor="middle" x="73.78" y="-145.7" font-family="Times,serif" font-size="14.00">1.00</text>
</g>
<!-- LowerBodyO2 -->
<g id="node13" class="node">
<title>LowerBodyO2</title>
<ellipse fill="none" stroke="black" cx="66.19" cy="-18" rx="66.19" ry="18"/>
<text text-anchor="middle" x="66.19" y="-12.95" font-family="Times,serif" font-size="14.00">LowerBodyO2</text>
</g>
<!-- HypDistrib&#45;&gt;LowerBodyO2 -->
<g id="edge17" class="edge">
<title>HypDistrib&#45;&gt;LowerBodyO2</title>
<path fill="none" stroke="black" d="M62.98,-88.41C63.52,-76.76 64.25,-61.05 64.88,-47.52"/>
<polygon fill="black" stroke="black" points="68.36,-48.01 65.32,-37.86 61.36,-47.69 68.36,-48.01"/>
<text text-anchor="middle" x="76.55" y="-57.2" font-family="Times,serif" font-size="14.00">1.00</text>
</g>
<!-- CardiacMixing -->
<g id="node3" class="node">
<title>CardiacMixing</title>
<ellipse fill="none" stroke="black" cx="194.19" cy="-195" rx="67.22" ry="18"/>
<text text-anchor="middle" x="194.19" y="-189.95" font-family="Times,serif" font-size="14.00">CardiacMixing</text>
</g>
<!-- CardiacMixing&#45;&gt;HypDistrib -->
<g id="edge3" class="edge">
<title>CardiacMixing&#45;&gt;HypDistrib</title>
<path fill="none" stroke="black" d="M169.68,-177.93C148.67,-164.17 118.23,-144.22 95.11,-129.07"/>
<polygon fill="black" stroke="black" points="97.24,-126.28 86.96,-123.73 93.41,-132.14 97.24,-126.28"/>
<text text-anchor="middle" x="152.02" y="-145.7" font-family="Times,serif" font-size="14.00">1.00</text>
</g>
<!-- HypoxiaInO2 -->
<g id="node4" class="node">
<title>HypoxiaInO2</title>
<ellipse fill="none" stroke="black" cx="194.19" cy="-106.5" rx="61.59" ry="18"/>
<text text-anchor="middle" x="194.19" y="-101.45" font-family="Times,serif" font-size="14.00">HypoxiaInO2</text>
</g>
<!-- CardiacMixing&#45;&gt;HypoxiaInO2 -->
<g id="edge5" class="edge">
<title>CardiacMixing&#45;&gt;HypoxiaInO2</title>
<path fill="none" stroke="black" d="M194.19,-176.91C194.19,-165.26 194.19,-149.55 194.19,-136.02"/>
<polygon fill="black" stroke="black" points="197.69,-136.36 194.19,-126.36 190.69,-136.36 197.69,-136.36"/>
<text text-anchor="middle" x="206.19" y="-145.7" font-family="Times,serif" font-size="14.00">1.00</text>
</g>
<!-- HypoxiaInO2&#45;&gt;LowerBodyO2 -->
<g id="edge18" class="edge">
<title>HypoxiaInO2&#45;&gt;LowerBodyO2</title>
<path fill="none" stroke="black" d="M170.42,-89.43C150.39,-75.9 121.53,-56.39 99.25,-41.34"/>
<polygon fill="black" stroke="black" points="101.34,-38.53 91.1,-35.83 97.42,-44.33 101.34,-38.53"/>
<text text-anchor="middle" x="153.66" y="-57.2" font-family="Times,serif" font-size="14.00">1.00</text>
</g>
<!-- RUQO2 -->
<g id="node14" class="node">
<title>RUQO2</title>
<ellipse fill="none" stroke="black" cx="193.19" cy="-18" rx="41.63" ry="18"/>
<text text-anchor="middle" x="193.19" y="-12.95" font-family="Times,serif" font-size="14.00">RUQO2</text>
</g>
<!-- HypoxiaInO2&#45;&gt;RUQO2 -->
<g id="edge19" class="edge">
<title>HypoxiaInO2&#45;&gt;RUQO2</title>
<path fill="none" stroke="black" d="M194,-88.41C193.86,-76.76 193.68,-61.05 193.52,-47.52"/>
<polygon fill="black" stroke="black" points="197.03,-47.82 193.41,-37.86 190.03,-47.9 197.03,-47.82"/>
<text text-anchor="middle" x="205.78" y="-57.2" font-family="Times,serif" font-size="14.00">1.00</text>
</g>
<!-- LungParench -->
<g id="node5" class="node">
<title>LungParench</title>
<ellipse fill="none" stroke="black" cx="339.19" cy="-195" rx="60.05" ry="18"/>
<text text-anchor="middle" x="339.19" y="-189.95" font-family="Times,serif" font-size="14.00">LungParench</text>
</g>
<!-- LungParench&#45;&gt;HypoxiaInO2 -->
<g id="edge6" class="edge">
<title>LungParench&#45;&gt;HypoxiaInO2</title>
<path fill="none" stroke="black" d="M312.94,-178.34C289.74,-164.5 255.7,-144.19 230,-128.86"/>
<polygon fill="black" stroke="black" points="231.94,-125.94 221.56,-123.82 228.35,-131.95 231.94,-125.94"/>
<text text-anchor="middle" x="291.68" y="-145.7" font-family="Times,serif" font-size="14.00">1.00</text>
</g>
<!-- CO2 -->
<g id="node6" class="node">
<title>CO2</title>
<ellipse fill="none" stroke="black" cx="316.19" cy="-106.5" rx="28.32" ry="18"/>
<text text-anchor="middle" x="316.19" y="-101.45" font-family="Times,serif" font-size="14.00">CO2</text>
</g>
<!-- LungParench&#45;&gt;CO2 -->
<g id="edge8" class="edge">
<title>LungParench&#45;&gt;CO2</title>
<path fill="none" stroke="black" d="M333.45,-176.63C331.67,-171.03 329.77,-164.78 328.19,-159 326.16,-151.56 324.17,-143.46 322.41,-135.93"/>
<polygon fill="black" stroke="black" points="325.84,-135.2 320.21,-126.22 319.01,-136.75 325.84,-135.2"/>
<text text-anchor="middle" x="340.19" y="-145.7" font-family="Times,serif" font-size="14.00">1.00</text>
</g>
<!-- ChestXray -->
<g id="node7" class="node">
<title>ChestXray</title>
<ellipse fill="none" stroke="black" cx="422.19" cy="-106.5" rx="50.33" ry="18"/>
<text text-anchor="middle" x="422.19" y="-101.45" font-family="Times,serif" font-size="14.00">ChestXray</text>
</g>
<!-- LungParench&#45;&gt;ChestXray -->
<g id="edge9" class="edge">
<title>LungParench&#45;&gt;ChestXray</title>
<path fill="none" stroke="black" d="M355.2,-177.32C367.56,-164.44 384.86,-146.41 398.78,-131.9"/>
<polygon fill="black" stroke="black" points="401.08,-134.56 405.47,-124.93 396.02,-129.72 401.08,-134.56"/>
<text text-anchor="middle" x="400.13" y="-145.7" font-family="Times,serif" font-size="14.00">1.00</text>
</g>
<!-- Grunting -->
<g id="node9" class="node">
<title>Grunting</title>
<ellipse fill="none" stroke="black" cx="535.19" cy="-106.5" rx="44.19" ry="18"/>
<text text-anchor="middle" x="535.19" y="-101.45" font-family="Times,serif" font-size="14.00">Grunting</text>
</g>
<!-- LungParench&#45;&gt;Grunting -->
<g id="edge12" class="edge">
<title>LungParench&#45;&gt;Grunting</title>
<path fill="none" stroke="black" d="M383.46,-182.48C411.45,-174.91 444.78,-165.28 458.19,-159 475.12,-151.08 492.54,-139.74 506.52,-129.72"/>
<polygon fill="black" stroke="black" points="508.4,-132.68 514.39,-123.94 504.25,-127.04 508.4,-132.68"/>
<text text-anchor="middle" x="499.03" y="-145.7" font-family="Times,serif" font-size="14.00">1.00</text>
</g>
<!-- CO2Report -->
<g id="node15" class="node">
<title>CO2Report</title>
<ellipse fill="none" stroke="black" cx="306.19" cy="-18" rx="53.4" ry="18"/>
<text text-anchor="middle" x="306.19" y="-12.95" font-family="Times,serif" font-size="14.00">CO2Report</text>
</g>
<!-- CO2&#45;&gt;CO2Report -->
<g id="edge20" class="edge">
<title>CO2&#45;&gt;CO2Report</title>
<path fill="none" stroke="black" d="M314.22,-88.41C312.87,-76.76 311.05,-61.05 309.49,-47.52"/>
<polygon fill="black" stroke="black" points="313,-47.39 308.37,-37.85 306.05,-48.19 313,-47.39"/>
<text text-anchor="middle" x="324.09" y="-57.2" font-family="Times,serif" font-size="14.00">1.00</text>
</g>
<!-- XrayReport -->
<g id="node16" class="node">
<title>XrayReport</title>
<ellipse fill="none" stroke="black" cx="432.19" cy="-18" rx="54.42" ry="18"/>
<text text-anchor="middle" x="432.19" y="-12.95" font-family="Times,serif" font-size="14.00">XrayReport</text>
</g>
<!-- ChestXray&#45;&gt;XrayReport -->
<g id="edge21" class="edge">
<title>ChestXray&#45;&gt;XrayReport</title>
<path fill="none" stroke="black" d="M424.17,-88.41C425.52,-76.76 427.33,-61.05 428.9,-47.52"/>
<polygon fill="black" stroke="black" points="432.34,-48.19 430.01,-37.85 425.39,-47.39 432.34,-48.19"/>
<text text-anchor="middle" x="440.09" y="-57.2" font-family="Times,serif" font-size="14.00">1.00</text>
</g>
<!-- LungFlow -->
<g id="node8" class="node">
<title>LungFlow</title>
<ellipse fill="none" stroke="black" cx="466.19" cy="-195" rx="49.3" ry="18"/>
<text text-anchor="middle" x="466.19" y="-189.95" font-family="Times,serif" font-size="14.00">LungFlow</text>
</g>
<!-- LungFlow&#45;&gt;ChestXray -->
<g id="edge10" class="edge">
<title>LungFlow&#45;&gt;ChestXray</title>
<path fill="none" stroke="black" d="M448.3,-177.92C443.07,-172.39 437.8,-165.85 434.19,-159 430.5,-151.99 427.93,-143.85 426.15,-136.14"/>
<polygon fill="black" stroke="black" points="429.62,-135.62 424.3,-126.46 422.74,-136.94 429.62,-135.62"/>
<text text-anchor="middle" x="446.19" y="-145.7" font-family="Times,serif" font-size="14.00">1.00</text>
</g>
<!-- GruntingReport -->
<g id="node19" class="node">
<title>GruntingReport</title>
<ellipse fill="none" stroke="black" cx="574.19" cy="-18" rx="69.26" ry="18"/>
<text text-anchor="middle" x="574.19" y="-12.95" font-family="Times,serif" font-size="14.00">GruntingReport</text>
</g>
<!-- Grunting&#45;&gt;GruntingReport -->
<g id="edge23" class="edge">
<title>Grunting&#45;&gt;GruntingReport</title>
<path fill="none" stroke="black" d="M542.9,-88.41C548.26,-76.52 555.52,-60.41 561.7,-46.7"/>
<polygon fill="black" stroke="black" points="564.83,-48.28 565.75,-37.73 558.45,-45.41 564.83,-48.28"/>
<text text-anchor="middle" x="570.19" y="-57.2" font-family="Times,serif" font-size="14.00">1.00</text>
</g>
<!-- Sick -->
<g id="node10" class="node">
<title>Sick</title>
<ellipse fill="none" stroke="black" cx="561.19" cy="-195" rx="27.3" ry="18"/>
<text text-anchor="middle" x="561.19" y="-189.95" font-family="Times,serif" font-size="14.00">Sick</text>
</g>
<!-- Sick&#45;&gt;Grunting -->
<g id="edge13" class="edge">
<title>Sick&#45;&gt;Grunting</title>
<path fill="none" stroke="black" d="M548.53,-178.54C544.49,-172.75 540.48,-165.9 538.19,-159 535.79,-151.75 534.66,-143.61 534.21,-135.98"/>
<polygon fill="black" stroke="black" points="537.72,-136.06 534.03,-126.13 530.72,-136.19 537.72,-136.06"/>
<text text-anchor="middle" x="550.19" y="-145.7" font-family="Times,serif" font-size="14.00">1.00</text>
</g>
<!-- Age -->
<g id="node20" class="node">
<title>Age</title>
<ellipse fill="none" stroke="black" cx="624.19" cy="-106.5" rx="27" ry="18"/>
<text text-anchor="middle" x="624.19" y="-101.45" font-family="Times,serif" font-size="14.00">Age</text>
</g>
<!-- Sick&#45;&gt;Age -->
<g id="edge24" class="edge">
<title>Sick&#45;&gt;Age</title>
<path fill="none" stroke="black" d="M567.4,-177.34C571.77,-166.8 578.25,-153.19 586.19,-142.5 589.94,-137.46 594.48,-132.56 599.1,-128.1"/>
<polygon fill="black" stroke="black" points="601.17,-130.94 606.22,-121.63 596.46,-125.76 601.17,-130.94"/>
<text text-anchor="middle" x="598.19" y="-145.7" font-family="Times,serif" font-size="14.00">1.00</text>
</g>
<!-- LVH -->
<g id="node11" class="node">
<title>LVH</title>
<ellipse fill="none" stroke="black" cx="709.19" cy="-195" rx="29.86" ry="18"/>
<text text-anchor="middle" x="709.19" y="-189.95" font-family="Times,serif" font-size="14.00">LVH</text>
</g>
<!-- LVHreport -->
<g id="node12" class="node">
<title>LVHreport</title>
<ellipse fill="none" stroke="black" cx="721.19" cy="-106.5" rx="51.86" ry="18"/>
<text text-anchor="middle" x="721.19" y="-101.45" font-family="Times,serif" font-size="14.00">LVHreport</text>
</g>
<!-- LVH&#45;&gt;LVHreport -->
<g id="edge16" class="edge">
<title>LVH&#45;&gt;LVHreport</title>
<path fill="none" stroke="black" d="M711.56,-176.91C713.18,-165.26 715.36,-149.55 717.24,-136.02"/>
<polygon fill="black" stroke="black" points="720.67,-136.74 718.58,-126.35 713.74,-135.77 720.67,-136.74"/>
<text text-anchor="middle" x="728.27" y="-145.7" font-family="Times,serif" font-size="14.00">1.00</text>
</g>
<!-- BirthAsphyxia -->
<g id="node17" class="node">
<title>BirthAsphyxia</title>
<ellipse fill="none" stroke="black" cx="466.19" cy="-372" rx="65.17" ry="18"/>
<text text-anchor="middle" x="466.19" y="-366.95" font-family="Times,serif" font-size="14.00">BirthAsphyxia</text>
</g>
<!-- Disease -->
<g id="node18" class="node">
<title>Disease</title>
<ellipse fill="none" stroke="black" cx="466.19" cy="-283.5" rx="39.58" ry="18"/>
<text text-anchor="middle" x="466.19" y="-278.45" font-family="Times,serif" font-size="14.00">Disease</text>
</g>
<!-- BirthAsphyxia&#45;&gt;Disease -->
<g id="edge22" class="edge">
<title>BirthAsphyxia&#45;&gt;Disease</title>
<path fill="none" stroke="black" d="M466.19,-353.91C466.19,-342.26 466.19,-326.55 466.19,-313.02"/>
<polygon fill="black" stroke="black" points="469.69,-313.36 466.19,-303.36 462.69,-313.36 469.69,-313.36"/>
<text text-anchor="middle" x="478.19" y="-322.7" font-family="Times,serif" font-size="14.00">1.00</text>
</g>
<!-- Disease&#45;&gt;DuctFlow -->
<g id="edge1" class="edge">
<title>Disease&#45;&gt;DuctFlow</title>
<path fill="none" stroke="black" d="M429.32,-276.49C365.48,-265.77 230.39,-241.78 118.19,-213 114.9,-212.15 111.51,-211.25 108.1,-210.3"/>
<polygon fill="black" stroke="black" points="109.29,-207 98.72,-207.63 107.38,-213.74 109.29,-207"/>
<text text-anchor="middle" x="282.11" y="-234.2" font-family="Times,serif" font-size="14.00">1.00</text>
</g>
<!-- Disease&#45;&gt;CardiacMixing -->
<g id="edge4" class="edge">
<title>Disease&#45;&gt;CardiacMixing</title>
<path fill="none" stroke="black" d="M434.46,-272.41C388.48,-257.78 302.75,-230.52 247.11,-212.83"/>
<polygon fill="black" stroke="black" points="248.44,-209.58 237.84,-209.88 246.31,-216.25 248.44,-209.58"/>
<text text-anchor="middle" x="366.56" y="-234.2" font-family="Times,serif" font-size="14.00">1.00</text>
</g>
<!-- Disease&#45;&gt;LungParench -->
<g id="edge7" class="edge">
<title>Disease&#45;&gt;LungParench</title>
<path fill="none" stroke="black" d="M444.94,-268.02C425.04,-254.47 395.02,-234.02 372.04,-218.37"/>
<polygon fill="black" stroke="black" points="374.16,-215.58 363.93,-212.85 370.22,-221.37 374.16,-215.58"/>
<text text-anchor="middle" x="426.07" y="-234.2" font-family="Times,serif" font-size="14.00">1.00</text>
</g>
<!-- Disease&#45;&gt;LungFlow -->
<g id="edge11" class="edge">
<title>Disease&#45;&gt;LungFlow</title>
<path fill="none" stroke="black" d="M466.19,-265.41C466.19,-253.76 466.19,-238.05 466.19,-224.52"/>
<polygon fill="black" stroke="black" points="469.69,-224.86 466.19,-214.86 462.69,-224.86 469.69,-224.86"/>
<text text-anchor="middle" x="478.19" y="-234.2" font-family="Times,serif" font-size="14.00">1.00</text>
</g>
<!-- Disease&#45;&gt;Sick -->
<g id="edge14" class="edge">
<title>Disease&#45;&gt;Sick</title>
<path fill="none" stroke="black" d="M483.18,-267.04C498.27,-253.3 520.48,-233.07 537.35,-217.71"/>
<polygon fill="black" stroke="black" points="539.46,-220.52 544.5,-211.2 534.75,-215.35 539.46,-220.52"/>
<text text-anchor="middle" x="534.2" y="-234.2" font-family="Times,serif" font-size="14.00">1.00</text>
</g>
<!-- Disease&#45;&gt;LVH -->
<g id="edge15" class="edge">
<title>Disease&#45;&gt;LVH</title>
<path fill="none" stroke="black" d="M505.19,-279.33C541.02,-275.33 594.95,-266.51 638.19,-247.5 654.91,-240.15 671.54,-228.39 684.5,-217.96"/>
<polygon fill="black" stroke="black" points="686.63,-220.74 692.07,-211.65 682.15,-215.36 686.63,-220.74"/>
<text text-anchor="middle" x="677.34" y="-234.2" font-family="Times,serif" font-size="14.00">1.00</text>
</g>
<!-- Disease&#45;&gt;Age -->
<g id="edge25" class="edge">
<title>Disease&#45;&gt;Age</title>
<path fill="none" stroke="black" d="M500.55,-274.12C531.27,-264.69 574.79,-246.18 597.19,-213 612.8,-189.89 619.39,-158.39 622.17,-135.84"/>
<polygon fill="black" stroke="black" points="625.62,-136.46 623.17,-126.15 618.66,-135.74 625.62,-136.46"/>
<text text-anchor="middle" x="625.59" y="-189.95" font-family="Times,serif" font-size="14.00">1.00</text>
</g>
</g>
</svg>
